<mxfile host="Electron" modified="2023-04-01T18:58:08.158Z" agent="Mozilla/5.0 (Windows NT 10.0; Win64; x64) AppleWebKit/537.36 (KHTML, like Gecko) draw.io/21.1.2 Chrome/106.0.5249.199 Electron/21.4.3 Safari/537.36" etag="8CJNP49g-IpAArZWubqg" version="21.1.2" type="device">
  <diagram name="Seite-1" id="2Wse5JweX1WTXrJoZwiq">
    <mxGraphModel dx="7119" dy="2570" grid="1" gridSize="10" guides="1" tooltips="1" connect="1" arrows="1" fold="1" page="1" pageScale="1" pageWidth="4681" pageHeight="3300" math="0" shadow="0">
      <root>
        <mxCell id="0" />
        <mxCell id="1" parent="0" />
        <mxCell id="MXFwZuzTDgRPBYKRgnkD-4" value="" style="shape=flexArrow;endArrow=classic;html=1;rounded=0;fontSize=12;startSize=8;endSize=8;curved=1;entryX=0.463;entryY=0;entryDx=0;entryDy=0;entryPerimeter=0;exitX=0.456;exitY=0.995;exitDx=0;exitDy=0;exitPerimeter=0;" edge="1" parent="1" source="MXFwZuzTDgRPBYKRgnkD-7" target="MXFwZuzTDgRPBYKRgnkD-8">
          <mxGeometry width="50" height="50" relative="1" as="geometry">
            <mxPoint x="-2570.5" y="290" as="sourcePoint" />
            <mxPoint x="-2250.48" y="330" as="targetPoint" />
          </mxGeometry>
        </mxCell>
        <mxCell id="MXFwZuzTDgRPBYKRgnkD-7" value="&lt;p style=&quot;margin:0px;margin-top:4px;text-align:center;&quot;&gt;&lt;b&gt;Class = DrawableObject&lt;/b&gt;&lt;/p&gt;&lt;hr size=&quot;1&quot;&gt;&lt;div style=&quot;height:2px;&quot;&gt;&lt;/div&gt;&lt;hr size=&quot;1&quot;&gt;&lt;div style=&quot;height:2px;&quot;&gt;&lt;p style=&quot;border-color: var(--border-color); margin: 0px 0px 0px 4px;&quot;&gt;x&lt;/p&gt;&lt;p style=&quot;border-color: var(--border-color); margin: 0px 0px 0px 4px;&quot;&gt;y&lt;/p&gt;&lt;p style=&quot;border-color: var(--border-color); margin: 0px 0px 0px 4px;&quot;&gt;width&lt;/p&gt;&lt;p style=&quot;border-color: var(--border-color); margin: 0px 0px 0px 4px;&quot;&gt;height&lt;/p&gt;&lt;p style=&quot;border-color: var(--border-color); margin: 0px 0px 0px 4px;&quot;&gt;&lt;br style=&quot;border-color: var(--border-color);&quot;&gt;&lt;/p&gt;&lt;p style=&quot;border-color: var(--border-color); margin: 0px 0px 0px 4px;&quot;&gt;loadImage(path)&lt;/p&gt;&lt;p style=&quot;border-color: var(--border-color); margin: 0px 0px 0px 4px;&quot;&gt;draw(ctx)&lt;/p&gt;&lt;p style=&quot;border-color: var(--border-color); margin: 0px 0px 0px 4px;&quot;&gt;loadImage(arr)&lt;/p&gt;&lt;p style=&quot;border-color: var(--border-color); margin: 0px 0px 0px 4px;&quot;&gt;drawFrame(ctx)&lt;/p&gt;&lt;/div&gt;" style="verticalAlign=top;align=left;overflow=fill;fontSize=12;fontFamily=Helvetica;html=1;whiteSpace=wrap;" vertex="1" parent="1">
          <mxGeometry x="-2650" y="80" width="160" height="200" as="geometry" />
        </mxCell>
        <mxCell id="MXFwZuzTDgRPBYKRgnkD-8" value="&lt;p style=&quot;margin:0px;margin-top:4px;text-align:center;&quot;&gt;&lt;b&gt;Class = MoveableObject&lt;/b&gt;&lt;/p&gt;&lt;hr size=&quot;1&quot;&gt;&lt;div style=&quot;height:2px;&quot;&gt;&lt;/div&gt;&lt;hr size=&quot;1&quot;&gt;&lt;div style=&quot;height:2px;&quot;&gt;&lt;p style=&quot;border-color: var(--border-color); margin: 4px 0px 0px;&quot;&gt;&lt;span style=&quot;border-color: var(--border-color);&quot;&gt;&amp;nbsp;speed&lt;/span&gt;&lt;/p&gt;&lt;p style=&quot;border-color: var(--border-color); margin: 4px 0px 0px;&quot;&gt;&lt;span style=&quot;border-color: var(--border-color);&quot;&gt;&amp;nbsp;otherDirection&lt;/span&gt;&lt;/p&gt;&lt;p style=&quot;border-color: var(--border-color); margin: 4px 0px 0px;&quot;&gt;&lt;span style=&quot;border-color: var(--border-color);&quot;&gt;&amp;nbsp;speedY&lt;/span&gt;&lt;/p&gt;&lt;p style=&quot;border-color: var(--border-color); margin: 4px 0px 0px;&quot;&gt;&lt;span style=&quot;border-color: var(--border-color);&quot;&gt;&amp;nbsp;energy&lt;/span&gt;&lt;/p&gt;&lt;p style=&quot;border-color: var(--border-color); margin: 4px 0px 0px;&quot;&gt;&lt;span style=&quot;border-color: var(--border-color);&quot;&gt;&amp;nbsp;lastHit&lt;/span&gt;&lt;/p&gt;&lt;p style=&quot;border-color: var(--border-color); margin: 4px 0px 0px;&quot;&gt;&lt;span style=&quot;border-color: var(--border-color);&quot;&gt;&lt;br style=&quot;border-color: var(--border-color);&quot;&gt;&lt;/span&gt;&lt;/p&gt;&lt;p style=&quot;border-color: var(--border-color); margin: 4px 0px 0px;&quot;&gt;&lt;span style=&quot;border-color: var(--border-color);&quot;&gt;&amp;nbsp;offset = {&lt;/span&gt;&lt;/p&gt;&lt;p style=&quot;border-color: var(--border-color); margin: 4px 0px 0px;&quot;&gt;&lt;span style=&quot;border-color: var(--border-color);&quot;&gt;&amp;nbsp; }&lt;/span&gt;&lt;/p&gt;&lt;p style=&quot;border-color: var(--border-color); margin: 4px 0px 0px;&quot;&gt;&lt;span style=&quot;border-color: var(--border-color);&quot;&gt;&lt;br style=&quot;border-color: var(--border-color);&quot;&gt;&lt;/span&gt;&lt;/p&gt;&lt;p style=&quot;border-color: var(--border-color); margin: 4px 0px 0px;&quot;&gt;&lt;span style=&quot;border-color: var(--border-color);&quot;&gt;&amp;nbsp;applyGravity()&lt;/span&gt;&lt;/p&gt;&lt;p style=&quot;border-color: var(--border-color); margin: 4px 0px 0px;&quot;&gt;&lt;span style=&quot;border-color: var(--border-color); background-color: initial;&quot;&gt;&amp;nbsp;isAboveGround()&lt;/span&gt;&lt;/p&gt;&lt;p style=&quot;border-color: var(--border-color); margin: 4px 0px 0px;&quot;&gt;&lt;span style=&quot;border-color: var(--border-color); background-color: initial;&quot;&gt;&amp;nbsp;playAnimation(images)&lt;/span&gt;&lt;/p&gt;&lt;p style=&quot;border-color: var(--border-color); margin: 4px 0px 0px;&quot;&gt;&lt;span style=&quot;border-color: var(--border-color); background-color: initial;&quot;&gt;&amp;nbsp;moveRight()&lt;/span&gt;&lt;/p&gt;&lt;p style=&quot;border-color: var(--border-color); margin: 4px 0px 0px;&quot;&gt;&lt;span style=&quot;border-color: var(--border-color); background-color: initial;&quot;&gt;&amp;nbsp;moveLeft()&lt;/span&gt;&lt;/p&gt;&lt;p style=&quot;border-color: var(--border-color); margin: 4px 0px 0px;&quot;&gt;&lt;span style=&quot;border-color: var(--border-color); background-color: initial;&quot;&gt;&amp;nbsp;isColliding(mo)&lt;/span&gt;&lt;/p&gt;&lt;p style=&quot;border-color: var(--border-color); margin: 4px 0px 0px;&quot;&gt;&lt;span style=&quot;border-color: var(--border-color); background-color: initial;&quot;&gt;&amp;nbsp;hit()&lt;/span&gt;&lt;/p&gt;&lt;p style=&quot;border-color: var(--border-color); margin: 4px 0px 0px;&quot;&gt;&lt;span style=&quot;border-color: var(--border-color); background-color: initial;&quot;&gt;&amp;nbsp;isDead()&lt;/span&gt;&lt;/p&gt;&lt;p style=&quot;border-color: var(--border-color); margin: 4px 0px 0px;&quot;&gt;&lt;span style=&quot;border-color: var(--border-color); background-color: initial;&quot;&gt;&amp;nbsp;isHurt()&lt;/span&gt;&lt;/p&gt;&lt;/div&gt;" style="verticalAlign=top;align=left;overflow=fill;fontSize=12;fontFamily=Helvetica;html=1;whiteSpace=wrap;" vertex="1" parent="1">
          <mxGeometry x="-2650" y="360" width="160" height="400" as="geometry" />
        </mxCell>
        <mxCell id="MXFwZuzTDgRPBYKRgnkD-9" value="&lt;p style=&quot;margin:0px;margin-top:4px;text-align:center;&quot;&gt;&lt;b&gt;Class = ThrowableObject&lt;/b&gt;&lt;/p&gt;&lt;hr size=&quot;1&quot;&gt;&lt;div style=&quot;height:2px;&quot;&gt;&lt;/div&gt;&lt;hr size=&quot;1&quot;&gt;&lt;div style=&quot;height:2px;&quot;&gt;&amp;nbsp;bottleCollision&lt;br&gt;&lt;br&gt;&lt;/div&gt;&lt;div style=&quot;height:2px;&quot;&gt;&lt;br&gt;&lt;br&gt;&amp;nbsp;IMAGES_BOTTEL_ROTATION []&lt;/div&gt;&lt;div style=&quot;height: 2px;&quot;&gt;&lt;br&gt;&lt;br&gt;&lt;br&gt;&amp;nbsp;IMAGES_BOTTLE_SPLASH []&lt;br&gt;&lt;br&gt;&lt;div style=&quot;color: rgb(171, 178, 191); font-family: &amp;quot;JetBrainsMono Nerd Font&amp;quot;, Consolas, &amp;quot;Courier New&amp;quot;, monospace; line-height: 22px;&quot;&gt;&lt;div style=&quot;&quot;&gt;constructor(&lt;span style=&quot;color: rgb(224, 108, 117); font-style: italic;&quot;&gt;x&lt;/span&gt;, &lt;span style=&quot;color: rgb(224, 108, 117); font-style: italic;&quot;&gt;y&lt;/span&gt;) {&lt;/div&gt;&lt;div style=&quot;&quot;&gt;&amp;nbsp; &amp;nbsp; &amp;nbsp; &amp;nbsp; &lt;span style=&quot;color: #e5c07b;font-style: italic;&quot;&gt;super&lt;/span&gt;().&lt;span style=&quot;color: #61afef;&quot;&gt;loadImage&lt;/span&gt;(&lt;span style=&quot;color: #98c379;&quot;&gt;&#39;/src/img/6_salsa_bottle/salsa_bottle.png&#39;&lt;/span&gt;)&lt;span style=&quot;background-color: initial;&quot;&gt;&amp;nbsp; &amp;nbsp;&lt;/span&gt;&lt;span style=&quot;background-color: initial; color: rgb(229, 192, 123);&quot;&gt;this&lt;/span&gt;&lt;span style=&quot;background-color: initial;&quot;&gt;.&lt;/span&gt;&lt;span style=&quot;background-color: initial; color: rgb(97, 175, 239);&quot;&gt;loadImages&lt;/span&gt;&lt;span style=&quot;background-color: initial;&quot;&gt;(&lt;/span&gt;&lt;span style=&quot;background-color: initial; color: rgb(229, 192, 123);&quot;&gt;this&lt;/span&gt;&lt;span style=&quot;background-color: initial;&quot;&gt;.&lt;/span&gt;&lt;span style=&quot;background-color: initial; color: rgb(224, 108, 117);&quot;&gt;IMAGES_BOTTLE_ROTATION&lt;/span&gt;&lt;span style=&quot;background-color: initial;&quot;&gt;);&lt;/span&gt;&lt;span style=&quot;background-color: initial;&quot;&gt;&amp;nbsp; &amp;nbsp;&lt;/span&gt;&lt;span style=&quot;background-color: initial; color: rgb(229, 192, 123);&quot;&gt;this&lt;/span&gt;&lt;span style=&quot;background-color: initial;&quot;&gt;.&lt;/span&gt;&lt;span style=&quot;background-color: initial; color: rgb(97, 175, 239);&quot;&gt;loadImages&lt;/span&gt;&lt;span style=&quot;background-color: initial;&quot;&gt;(&lt;/span&gt;&lt;span style=&quot;background-color: initial; color: rgb(229, 192, 123);&quot;&gt;this&lt;/span&gt;&lt;span style=&quot;background-color: initial;&quot;&gt;.&lt;/span&gt;&lt;span style=&quot;background-color: initial; color: rgb(224, 108, 117);&quot;&gt;IMAGES_BOTTLE_SPLASH&lt;/span&gt;&lt;span style=&quot;background-color: initial;&quot;&gt;);&lt;/span&gt;&lt;/div&gt;&lt;div style=&quot;&quot;&gt;&amp;nbsp; &amp;nbsp; &amp;nbsp; &amp;nbsp; &lt;span style=&quot;color: #e5c07b;&quot;&gt;this&lt;/span&gt;.&lt;span style=&quot;color: #e06c75;&quot;&gt;x&lt;/span&gt; &lt;span style=&quot;color: #56b6c2;&quot;&gt;=&lt;/span&gt; &lt;span style=&quot;color: #e06c75;font-style: italic;&quot;&gt;x&lt;/span&gt;;&amp;nbsp;&lt;span style=&quot;background-color: initial; color: rgb(229, 192, 123);&quot;&gt;this&lt;/span&gt;&lt;span style=&quot;background-color: initial;&quot;&gt;.&lt;/span&gt;&lt;span style=&quot;background-color: initial; color: rgb(224, 108, 117);&quot;&gt;y&lt;/span&gt;&lt;span style=&quot;background-color: initial;&quot;&gt; &lt;/span&gt;&lt;span style=&quot;background-color: initial; color: rgb(86, 182, 194);&quot;&gt;=&lt;/span&gt;&lt;span style=&quot;background-color: initial;&quot;&gt; &lt;/span&gt;&lt;span style=&quot;background-color: initial; color: rgb(224, 108, 117); font-style: italic;&quot;&gt;y&lt;/span&gt;&lt;span style=&quot;background-color: initial;&quot;&gt;;&lt;/span&gt;&lt;/div&gt;&lt;div style=&quot;&quot;&gt;&amp;nbsp; &amp;nbsp; &amp;nbsp; &amp;nbsp; &lt;span style=&quot;color: #e5c07b;&quot;&gt;this&lt;/span&gt;.&lt;span style=&quot;color: #e06c75;&quot;&gt;height&lt;/span&gt; &lt;span style=&quot;color: #56b6c2;&quot;&gt;=&lt;/span&gt; &lt;span style=&quot;color: #d19a66;&quot;&gt;60&lt;/span&gt;;&amp;nbsp;&lt;span style=&quot;background-color: initial; color: rgb(229, 192, 123);&quot;&gt;this&lt;/span&gt;&lt;span style=&quot;background-color: initial;&quot;&gt;.&lt;/span&gt;&lt;span style=&quot;background-color: initial; color: rgb(224, 108, 117);&quot;&gt;width&lt;/span&gt;&lt;span style=&quot;background-color: initial;&quot;&gt; &lt;/span&gt;&lt;span style=&quot;background-color: initial; color: rgb(86, 182, 194);&quot;&gt;=&lt;/span&gt;&lt;span style=&quot;background-color: initial;&quot;&gt; &lt;/span&gt;&lt;span style=&quot;background-color: initial; color: rgb(209, 154, 102);&quot;&gt;50&lt;/span&gt;&lt;span style=&quot;background-color: initial;&quot;&gt;;&lt;/span&gt;&lt;/div&gt;&lt;div style=&quot;&quot;&gt;&amp;nbsp; &amp;nbsp; &amp;nbsp; &amp;nbsp; &lt;span style=&quot;color: #e5c07b;&quot;&gt;this&lt;/span&gt;.&lt;span style=&quot;color: #61afef;&quot;&gt;throw&lt;/span&gt;();&lt;/div&gt;&lt;div style=&quot;&quot;&gt;&amp;nbsp; &amp;nbsp; }&lt;/div&gt;&lt;div style=&quot;&quot;&gt;&lt;br&gt;&lt;/div&gt;&lt;div style=&quot;&quot;&gt;&amp;nbsp;throw()&lt;/div&gt;&lt;/div&gt;&lt;/div&gt;&lt;div style=&quot;height:2px;&quot;&gt;&lt;br&gt;&lt;/div&gt;&lt;div style=&quot;height:2px;&quot;&gt;&lt;br&gt;&lt;/div&gt;&lt;div style=&quot;height:2px;&quot;&gt;&lt;br&gt;&lt;/div&gt;" style="verticalAlign=top;align=left;overflow=fill;fontSize=12;fontFamily=Helvetica;html=1;whiteSpace=wrap;" vertex="1" parent="1">
          <mxGeometry x="-2810" y="840" width="520" height="340" as="geometry" />
        </mxCell>
        <mxCell id="MXFwZuzTDgRPBYKRgnkD-13" value="&lt;p style=&quot;margin:0px;margin-top:4px;text-align:center;&quot;&gt;&lt;b&gt;Class = StatusBar&lt;/b&gt;&lt;/p&gt;&lt;hr size=&quot;1&quot;&gt;&lt;div style=&quot;height:2px;&quot;&gt;&lt;/div&gt;&lt;hr size=&quot;1&quot;&gt;&lt;div style=&quot;height: 2px;&quot;&gt;&amp;nbsp;IMAGES&amp;nbsp; = []&lt;br&gt;&lt;br&gt;&amp;nbsp;percentage&lt;br&gt;&lt;br&gt;&lt;div style=&quot;font-family: &amp;quot;JetBrainsMono Nerd Font&amp;quot;, Consolas, &amp;quot;Courier New&amp;quot;, monospace; line-height: 22px;&quot;&gt;&lt;div style=&quot;color: rgb(171, 178, 191);&quot;&gt;&amp;nbsp; &amp;nbsp; constructor() {&lt;/div&gt;&lt;div style=&quot;color: rgb(171, 178, 191);&quot;&gt;&amp;nbsp; &amp;nbsp; &amp;nbsp; &amp;nbsp; &lt;span style=&quot;color: #e5c07b;font-style: italic;&quot;&gt;super&lt;/span&gt;();&lt;/div&gt;&lt;div style=&quot;color: rgb(171, 178, 191);&quot;&gt;&amp;nbsp; &amp;nbsp; &amp;nbsp; &amp;nbsp; &lt;span style=&quot;color: #e5c07b;&quot;&gt;this&lt;/span&gt;.&lt;span style=&quot;color: #61afef;&quot;&gt;loadImages&lt;/span&gt;(&lt;span style=&quot;color: #e5c07b;&quot;&gt;this&lt;/span&gt;.&lt;span style=&quot;color: #e06c75;&quot;&gt;IMAGES&lt;/span&gt;);&lt;/div&gt;&lt;div style=&quot;color: rgb(171, 178, 191);&quot;&gt;&amp;nbsp; &amp;nbsp; &amp;nbsp; &amp;nbsp; &lt;span style=&quot;color: #e5c07b;&quot;&gt;this&lt;/span&gt;.&lt;span style=&quot;color: #e06c75;&quot;&gt;x&lt;/span&gt; &lt;span style=&quot;color: #56b6c2;&quot;&gt;=&lt;/span&gt; &lt;span style=&quot;color: #d19a66;&quot;&gt;10&lt;/span&gt;;&lt;/div&gt;&lt;div style=&quot;color: rgb(171, 178, 191);&quot;&gt;&amp;nbsp; &amp;nbsp; &amp;nbsp; &amp;nbsp; &lt;span style=&quot;color: #e5c07b;&quot;&gt;this&lt;/span&gt;.&lt;span style=&quot;color: #e06c75;&quot;&gt;y&lt;/span&gt; &lt;span style=&quot;color: #56b6c2;&quot;&gt;=&lt;/span&gt; &lt;span style=&quot;color: #d19a66;&quot;&gt;10&lt;/span&gt;;&lt;/div&gt;&lt;div style=&quot;color: rgb(171, 178, 191);&quot;&gt;&amp;nbsp; &amp;nbsp; &amp;nbsp; &amp;nbsp; &lt;span style=&quot;color: #e5c07b;&quot;&gt;this&lt;/span&gt;.&lt;span style=&quot;color: #e06c75;&quot;&gt;width&lt;/span&gt; &lt;span style=&quot;color: #56b6c2;&quot;&gt;=&lt;/span&gt; &lt;span style=&quot;color: #d19a66;&quot;&gt;200&lt;/span&gt;;&lt;/div&gt;&lt;div style=&quot;color: rgb(171, 178, 191);&quot;&gt;&amp;nbsp; &amp;nbsp; &amp;nbsp; &amp;nbsp; &lt;span style=&quot;color: #e5c07b;&quot;&gt;this&lt;/span&gt;.&lt;span style=&quot;color: #e06c75;&quot;&gt;height&lt;/span&gt; &lt;span style=&quot;color: #56b6c2;&quot;&gt;=&lt;/span&gt; &lt;span style=&quot;color: #d19a66;&quot;&gt;50&lt;/span&gt;;&lt;/div&gt;&lt;div style=&quot;color: rgb(171, 178, 191);&quot;&gt;&amp;nbsp; &amp;nbsp; &amp;nbsp; &amp;nbsp; &lt;span style=&quot;color: #e5c07b;&quot;&gt;this&lt;/span&gt;.&lt;span style=&quot;color: #61afef;&quot;&gt;setPercentage&lt;/span&gt;(&lt;span style=&quot;color: #d19a66;&quot;&gt;100&lt;/span&gt;);&lt;/div&gt;&lt;div style=&quot;color: rgb(171, 178, 191);&quot;&gt;&amp;nbsp; &amp;nbsp; }&lt;/div&gt;&lt;div style=&quot;&quot;&gt;&amp;nbsp;setPercentage(percentage)&lt;br&gt;&amp;nbsp;resolveImageIndex()&lt;/div&gt;&lt;div style=&quot;color: rgb(171, 178, 191);&quot;&gt;&lt;br&gt;&lt;/div&gt;&lt;/div&gt;&lt;/div&gt;" style="verticalAlign=top;align=left;overflow=fill;fontSize=12;fontFamily=Helvetica;html=1;whiteSpace=wrap;" vertex="1" parent="1">
          <mxGeometry x="-2410" y="360" width="240" height="400" as="geometry" />
        </mxCell>
        <mxCell id="MXFwZuzTDgRPBYKRgnkD-16" value="&lt;p style=&quot;margin:0px;margin-top:4px;text-align:center;&quot;&gt;&lt;b&gt;Class = Chicken&lt;/b&gt;&lt;/p&gt;&lt;hr size=&quot;1&quot;&gt;&lt;div style=&quot;height:2px;&quot;&gt;&lt;/div&gt;&lt;hr size=&quot;1&quot;&gt;&lt;div style=&quot;height:2px;&quot;&gt;&amp;nbsp;height&lt;br&gt;&amp;nbsp;width&lt;br&gt;&amp;nbsp;y&lt;br&gt;&amp;nbsp;x&lt;br&gt;&lt;br&gt;IMAGES_WALKING = []&lt;/div&gt;&lt;div style=&quot;height: 2px;&quot;&gt;&lt;br&gt;&lt;br&gt;&lt;br&gt;&lt;br&gt;&lt;br&gt;&lt;br&gt;&lt;br&gt;currentImage&lt;br&gt;&lt;br&gt;&lt;div style=&quot;color: rgb(171, 178, 191); font-family: &amp;quot;JetBrainsMono Nerd Font&amp;quot;, Consolas, &amp;quot;Courier New&amp;quot;, monospace; line-height: 22px;&quot;&gt;&lt;div style=&quot;&quot;&gt;&amp;nbsp; &amp;nbsp; constructor(){&lt;/div&gt;&lt;div style=&quot;&quot;&gt;&amp;nbsp; &amp;nbsp; &amp;nbsp; &amp;nbsp; &lt;span style=&quot;color: #e5c07b;font-style: italic;&quot;&gt;super&lt;/span&gt;().&lt;span style=&quot;color: #61afef;&quot;&gt;loadImage&lt;/span&gt;(&lt;span style=&quot;color: #98c379;&quot;&gt;&#39;/src/img/3_enemies_chicken/chicken_normal/1_walk/1_w.png&#39;&lt;/span&gt;)&lt;/div&gt;&lt;div style=&quot;&quot;&gt;&amp;nbsp; &amp;nbsp; &amp;nbsp; &amp;nbsp; &lt;span style=&quot;color: #e5c07b;&quot;&gt;this&lt;/span&gt;.&lt;span style=&quot;color: #e06c75;&quot;&gt;x&lt;/span&gt; &lt;span style=&quot;color: #56b6c2;&quot;&gt;=&lt;/span&gt; &lt;span style=&quot;color: #d19a66;&quot;&gt;200&lt;/span&gt; &lt;span style=&quot;color: #56b6c2;&quot;&gt;+&lt;/span&gt; (&lt;span style=&quot;color: #e5c07b;&quot;&gt;Math&lt;/span&gt;.&lt;span style=&quot;color: #61afef;&quot;&gt;random&lt;/span&gt;() &lt;span style=&quot;color: #56b6c2;&quot;&gt;*&lt;/span&gt; &lt;span style=&quot;color: #d19a66;&quot;&gt;500&lt;/span&gt;);&lt;/div&gt;&lt;div style=&quot;&quot;&gt;&amp;nbsp; &amp;nbsp; &amp;nbsp; &amp;nbsp; &lt;span style=&quot;color: #e5c07b;&quot;&gt;this&lt;/span&gt;.&lt;span style=&quot;color: #e06c75;&quot;&gt;speed&lt;/span&gt; &lt;span style=&quot;color: #56b6c2;&quot;&gt;=&lt;/span&gt; &lt;span style=&quot;color: #d19a66;&quot;&gt;0.15&lt;/span&gt; &lt;span style=&quot;color: #56b6c2;&quot;&gt;+&lt;/span&gt; (&lt;span style=&quot;color: #e5c07b;&quot;&gt;Math&lt;/span&gt;.&lt;span style=&quot;color: #61afef;&quot;&gt;random&lt;/span&gt;() &lt;span style=&quot;color: #56b6c2;&quot;&gt;*&lt;/span&gt; &lt;span style=&quot;color: #d19a66;&quot;&gt;0.25&lt;/span&gt;);&lt;/div&gt;&lt;div style=&quot;&quot;&gt;&amp;nbsp; &amp;nbsp; &amp;nbsp; &amp;nbsp; &lt;span style=&quot;color: #e5c07b;&quot;&gt;this&lt;/span&gt;.&lt;span style=&quot;color: #61afef;&quot;&gt;loadImages&lt;/span&gt;(&lt;span style=&quot;color: #e5c07b;&quot;&gt;this&lt;/span&gt;.&lt;span style=&quot;color: #e06c75;&quot;&gt;IMAGES_WALKING&lt;/span&gt;);&lt;/div&gt;&lt;div style=&quot;&quot;&gt;&amp;nbsp; &amp;nbsp; &amp;nbsp; &amp;nbsp; &lt;span style=&quot;color: #e5c07b;&quot;&gt;this&lt;/span&gt;.&lt;span style=&quot;color: #61afef;&quot;&gt;animate&lt;/span&gt;();&lt;/div&gt;&lt;div style=&quot;&quot;&gt;&amp;nbsp; &amp;nbsp; }&lt;/div&gt;&lt;div style=&quot;&quot;&gt;&lt;br&gt;&lt;/div&gt;&lt;div style=&quot;&quot;&gt;animate()&lt;/div&gt;&lt;/div&gt;&lt;/div&gt;" style="verticalAlign=top;align=left;overflow=fill;fontSize=12;fontFamily=Helvetica;html=1;whiteSpace=wrap;" vertex="1" parent="1">
          <mxGeometry x="-3450" y="770" width="560" height="410" as="geometry" />
        </mxCell>
        <mxCell id="MXFwZuzTDgRPBYKRgnkD-22" value="&lt;p style=&quot;margin:0px;margin-top:4px;text-align:center;&quot;&gt;&lt;b&gt;Class = Endboss&lt;/b&gt;&lt;/p&gt;&lt;hr size=&quot;1&quot;&gt;&lt;div style=&quot;height:2px;&quot;&gt;&lt;/div&gt;&lt;hr size=&quot;1&quot;&gt;&lt;div style=&quot;height: 2px;&quot;&gt;&amp;nbsp;height&lt;br&gt;&amp;nbsp;width&lt;br&gt;&amp;nbsp;y&lt;br&gt;&lt;br&gt;&amp;nbsp;IMAGES_WALKING = []&lt;br&gt;&lt;br&gt;&lt;br&gt;&amp;nbsp;&amp;nbsp; &amp;nbsp; &lt;span style=&quot;font-family: &amp;quot;JetBrainsMono Nerd Font&amp;quot;, Consolas, &amp;quot;Courier New&amp;quot;, monospace; color: rgb(198, 120, 221);&quot;&gt;constructor&lt;/span&gt;&lt;span style=&quot;color: rgb(171, 178, 191); font-family: &amp;quot;JetBrainsMono Nerd Font&amp;quot;, Consolas, &amp;quot;Courier New&amp;quot;, monospace;&quot;&gt;(){&lt;/span&gt;&lt;div style=&quot;color: rgb(171, 178, 191); font-family: &amp;quot;JetBrainsMono Nerd Font&amp;quot;, Consolas, &amp;quot;Courier New&amp;quot;, monospace; line-height: 22px;&quot;&gt;&lt;div style=&quot;&quot;&gt;&amp;nbsp; &amp;nbsp; &amp;nbsp; &amp;nbsp; &lt;span style=&quot;color: #e5c07b;font-style: italic;&quot;&gt;super&lt;/span&gt;().&lt;span style=&quot;color: #61afef;&quot;&gt;loadImage&lt;/span&gt;(&lt;span style=&quot;color: #e5c07b;&quot;&gt;this&lt;/span&gt;.&lt;span style=&quot;color: #e06c75;&quot;&gt;IMAGES_WALKING&lt;/span&gt;[&lt;span style=&quot;color: #d19a66;&quot;&gt;0&lt;/span&gt;]);&lt;/div&gt;&lt;div style=&quot;&quot;&gt;&amp;nbsp; &amp;nbsp; &amp;nbsp; &amp;nbsp; &lt;span style=&quot;color: #e5c07b;&quot;&gt;this&lt;/span&gt;.&lt;span style=&quot;color: #61afef;&quot;&gt;loadImages&lt;/span&gt;(&lt;span style=&quot;color: #e5c07b;&quot;&gt;this&lt;/span&gt;.&lt;span style=&quot;color: #e06c75;&quot;&gt;IMAGES_WALKING&lt;/span&gt;);&lt;/div&gt;&lt;div style=&quot;&quot;&gt;&amp;nbsp; &amp;nbsp; &amp;nbsp; &amp;nbsp; &lt;span style=&quot;color: #e5c07b;&quot;&gt;this&lt;/span&gt;.&lt;span style=&quot;color: #e06c75;&quot;&gt;x&lt;/span&gt; &lt;span style=&quot;color: #56b6c2;&quot;&gt;=&lt;/span&gt; &lt;span style=&quot;color: #d19a66;&quot;&gt;2700&lt;/span&gt;;&lt;/div&gt;&lt;div style=&quot;&quot;&gt;&amp;nbsp; &amp;nbsp; &amp;nbsp; &amp;nbsp; &lt;span style=&quot;color: #e5c07b;&quot;&gt;this&lt;/span&gt;.&lt;span style=&quot;color: #61afef;&quot;&gt;animate&lt;/span&gt;();&lt;/div&gt;&lt;div style=&quot;&quot;&gt;&amp;nbsp; &amp;nbsp; }&lt;/div&gt;&lt;/div&gt;&lt;br&gt;&amp;nbsp;animate()&lt;/div&gt;&lt;div style=&quot;height:2px;&quot;&gt;&lt;br&gt;&lt;br&gt;&lt;/div&gt;" style="verticalAlign=top;align=left;overflow=fill;fontSize=12;fontFamily=Helvetica;html=1;whiteSpace=wrap;" vertex="1" parent="1">
          <mxGeometry x="-4530" y="860" width="400" height="320" as="geometry" />
        </mxCell>
        <mxCell id="MXFwZuzTDgRPBYKRgnkD-24" value="" style="edgeStyle=entityRelationEdgeStyle;fontSize=12;html=1;endArrow=ERzeroToMany;endFill=1;rounded=0;startSize=8;endSize=8;curved=1;" edge="1" parent="1">
          <mxGeometry width="100" height="100" relative="1" as="geometry">
            <mxPoint x="-2970" y="770" as="sourcePoint" />
            <mxPoint x="-2650.995" y="623.6300000000001" as="targetPoint" />
          </mxGeometry>
        </mxCell>
        <mxCell id="MXFwZuzTDgRPBYKRgnkD-25" value="" style="edgeStyle=entityRelationEdgeStyle;fontSize=12;html=1;endArrow=ERzeroToMany;endFill=1;rounded=0;startSize=8;endSize=8;curved=1;exitX=1.002;exitY=0.138;exitDx=0;exitDy=0;exitPerimeter=0;" edge="1" parent="1" source="MXFwZuzTDgRPBYKRgnkD-20">
          <mxGeometry width="100" height="100" relative="1" as="geometry">
            <mxPoint x="-3310" y="650" as="sourcePoint" />
            <mxPoint x="-2650.995" y="623.6300000000001" as="targetPoint" />
          </mxGeometry>
        </mxCell>
        <mxCell id="MXFwZuzTDgRPBYKRgnkD-26" value="" style="edgeStyle=entityRelationEdgeStyle;fontSize=12;html=1;endArrow=ERzeroToMany;endFill=1;rounded=0;startSize=8;endSize=8;curved=1;entryX=0.013;entryY=0.66;entryDx=0;entryDy=0;entryPerimeter=0;exitX=0.5;exitY=0;exitDx=0;exitDy=0;" edge="1" parent="1" source="MXFwZuzTDgRPBYKRgnkD-22" target="MXFwZuzTDgRPBYKRgnkD-8">
          <mxGeometry width="100" height="100" relative="1" as="geometry">
            <mxPoint x="-4280" y="440" as="sourcePoint" />
            <mxPoint x="-3350" y="520" as="targetPoint" />
          </mxGeometry>
        </mxCell>
        <mxCell id="MXFwZuzTDgRPBYKRgnkD-20" value="&lt;p style=&quot;margin:0px;margin-top:4px;text-align:center;&quot;&gt;&lt;b&gt;Class = Character&lt;/b&gt;&lt;/p&gt;&lt;hr size=&quot;1&quot;&gt;&lt;div style=&quot;height:2px;&quot;&gt;&lt;/div&gt;&lt;hr size=&quot;1&quot;&gt;&lt;div style=&quot;height:2px;&quot;&gt;&amp;nbsp;height&lt;br&gt;&amp;nbsp;width&lt;br&gt;&amp;nbsp;y&lt;br&gt;&lt;br&gt;&amp;nbsp;speed&amp;nbsp;&lt;/div&gt;&lt;div style=&quot;height:2px;&quot;&gt;&lt;br&gt;&lt;br&gt;&lt;br&gt;&lt;br&gt;&lt;br&gt;&lt;br&gt;&lt;/div&gt;&lt;div style=&quot;height:2px;&quot;&gt;&lt;br&gt;&lt;br&gt;&lt;br&gt;&lt;br&gt;&lt;br&gt;&amp;nbsp;&lt;br&gt;IMAGES_WALKING = []&lt;br&gt;&lt;br&gt;&lt;/div&gt;&lt;div style=&quot;height: 2px;&quot;&gt;&lt;br&gt;&lt;br&gt;&lt;br&gt;&lt;br&gt;&lt;br&gt;&lt;br&gt;&lt;br&gt;&lt;div style=&quot;font-family: &amp;quot;JetBrainsMono Nerd Font&amp;quot;, Consolas, &amp;quot;Courier New&amp;quot;, monospace; line-height: 22px;&quot;&gt;&lt;div style=&quot;&quot;&gt;&lt;span style=&quot;background-color: initial;&quot;&gt;IMAGES_JUMPING = []&lt;/span&gt;&lt;br&gt;&lt;/div&gt;&lt;div style=&quot;&quot;&gt;&lt;span style=&quot;background-color: initial;&quot;&gt;IMAGES_DEAD = []&lt;/span&gt;&lt;br&gt;&lt;/div&gt;&lt;div style=&quot;&quot;&gt;&lt;span style=&quot;background-color: initial;&quot;&gt;IMAGES_HURT = []&lt;/span&gt;&lt;br&gt;&lt;/div&gt;&lt;div style=&quot;&quot;&gt;&lt;span style=&quot;background-color: initial;&quot;&gt;&lt;br&gt;&lt;/span&gt;&lt;/div&gt;&lt;div style=&quot;&quot;&gt;&lt;span style=&quot;background-color: initial;&quot;&gt;world&lt;/span&gt;&lt;/div&gt;&lt;div style=&quot;&quot;&gt;&lt;span style=&quot;background-color: initial;&quot;&gt;walking_sound&lt;/span&gt;&lt;/div&gt;&lt;div style=&quot;&quot;&gt;&lt;span style=&quot;background-color: initial;&quot;&gt;currentImage&lt;/span&gt;&lt;/div&gt;&lt;div style=&quot;&quot;&gt;&lt;span style=&quot;background-color: initial;&quot;&gt;&lt;br&gt;&lt;/span&gt;&lt;/div&gt;&lt;div style=&quot;&quot;&gt;&lt;div style=&quot;line-height: 22px;&quot;&gt;&lt;div style=&quot;color: rgb(171, 178, 191);&quot;&gt;&amp;nbsp; &amp;nbsp; constructor() {&lt;/div&gt;&lt;div style=&quot;color: rgb(171, 178, 191);&quot;&gt;&amp;nbsp; &amp;nbsp; &amp;nbsp; &amp;nbsp; &lt;span style=&quot;color: #e5c07b;font-style: italic;&quot;&gt;super&lt;/span&gt;().&lt;span style=&quot;color: #61afef;&quot;&gt;loadImage&lt;/span&gt;(&lt;span style=&quot;color: #98c379;&quot;&gt;&#39;/src/img/2_character_pepe/2_walk/W-21.png&#39;&lt;/span&gt;)&lt;/div&gt;&lt;br&gt;&lt;div style=&quot;color: rgb(171, 178, 191);&quot;&gt;&amp;nbsp; &amp;nbsp; &amp;nbsp; &amp;nbsp; &lt;span style=&quot;color: #e5c07b;&quot;&gt;this&lt;/span&gt;.&lt;span style=&quot;color: #61afef;&quot;&gt;loadImages&lt;/span&gt;(&lt;span style=&quot;color: #e5c07b;&quot;&gt;this&lt;/span&gt;.&lt;span style=&quot;color: #e06c75;&quot;&gt;IMAGES_WALKING&lt;/span&gt;);&lt;/div&gt;&lt;div style=&quot;color: rgb(171, 178, 191);&quot;&gt;&amp;nbsp; &amp;nbsp; &amp;nbsp; &amp;nbsp; &lt;span style=&quot;color: #e5c07b;&quot;&gt;this&lt;/span&gt;.&lt;span style=&quot;color: #61afef;&quot;&gt;loadImages&lt;/span&gt;(&lt;span style=&quot;color: #e5c07b;&quot;&gt;this&lt;/span&gt;.&lt;span style=&quot;color: #e06c75;&quot;&gt;IMAGES_JUMPING&lt;/span&gt;);&lt;/div&gt;&lt;div style=&quot;color: rgb(171, 178, 191);&quot;&gt;&amp;nbsp; &amp;nbsp; &amp;nbsp; &amp;nbsp; &lt;span style=&quot;color: #e5c07b;&quot;&gt;this&lt;/span&gt;.&lt;span style=&quot;color: #61afef;&quot;&gt;loadImages&lt;/span&gt;(&lt;span style=&quot;color: #e5c07b;&quot;&gt;this&lt;/span&gt;.&lt;span style=&quot;color: #e06c75;&quot;&gt;IMAGES_DEAD&lt;/span&gt;);&lt;/div&gt;&lt;div style=&quot;color: rgb(171, 178, 191);&quot;&gt;&amp;nbsp; &amp;nbsp; &amp;nbsp; &amp;nbsp; &lt;span style=&quot;color: #e5c07b;&quot;&gt;this&lt;/span&gt;.&lt;span style=&quot;color: #61afef;&quot;&gt;loadImages&lt;/span&gt;(&lt;span style=&quot;color: #e5c07b;&quot;&gt;this&lt;/span&gt;.&lt;span style=&quot;color: #e06c75;&quot;&gt;IMAGES_HURT&lt;/span&gt;);&lt;/div&gt;&lt;div style=&quot;color: rgb(171, 178, 191);&quot;&gt;&amp;nbsp; &amp;nbsp; &amp;nbsp; &amp;nbsp; &lt;span style=&quot;color: #e5c07b;&quot;&gt;this&lt;/span&gt;.&lt;span style=&quot;color: #61afef;&quot;&gt;applyGravity&lt;/span&gt;();&lt;/div&gt;&lt;div style=&quot;color: rgb(171, 178, 191);&quot;&gt;&amp;nbsp; &amp;nbsp; &amp;nbsp; &amp;nbsp; &lt;span style=&quot;color: #e5c07b;&quot;&gt;this&lt;/span&gt;.&lt;span style=&quot;color: #61afef;&quot;&gt;animate&lt;/span&gt;();&lt;/div&gt;&lt;div style=&quot;color: rgb(171, 178, 191);&quot;&gt;&amp;nbsp; &amp;nbsp; }&lt;/div&gt;&lt;div style=&quot;&quot;&gt;&lt;font color=&quot;#abb2bf&quot;&gt;&amp;nbsp;&lt;/font&gt;animate()&lt;/div&gt;&lt;div style=&quot;&quot;&gt;&amp;nbsp;jump()&lt;/div&gt;&lt;/div&gt;&lt;/div&gt;&lt;/div&gt;&lt;/div&gt;" style="verticalAlign=top;align=left;overflow=fill;fontSize=12;fontFamily=Helvetica;html=1;whiteSpace=wrap;" vertex="1" parent="1">
          <mxGeometry x="-4090" y="580" width="560" height="600" as="geometry" />
        </mxCell>
        <mxCell id="MXFwZuzTDgRPBYKRgnkD-27" value="&lt;p style=&quot;margin:0px;margin-top:4px;text-align:center;&quot;&gt;&lt;b&gt;Class = Cloud&lt;/b&gt;&lt;/p&gt;&lt;hr size=&quot;1&quot;&gt;&lt;div style=&quot;height:2px;&quot;&gt;&lt;/div&gt;&lt;hr size=&quot;1&quot;&gt;&lt;div style=&quot;height: 2px;&quot;&gt;&amp;nbsp;height&lt;br&gt;&amp;nbsp;width&lt;br&gt;&amp;nbsp;y&lt;br&gt;&lt;br&gt;&amp;nbsp;IMAGES_WALKING = []&lt;br&gt;&lt;br&gt;&lt;br&gt;&lt;/div&gt;&lt;div style=&quot;height: 2px;&quot;&gt;&lt;br&gt;&lt;div style=&quot;font-family: &amp;quot;JetBrainsMono Nerd Font&amp;quot;, Consolas, &amp;quot;Courier New&amp;quot;, monospace; line-height: 22px;&quot;&gt;&lt;div style=&quot;color: rgb(171, 178, 191);&quot;&gt;&lt;br&gt;&lt;/div&gt;&lt;div style=&quot;color: rgb(171, 178, 191);&quot;&gt;&lt;br&gt;&lt;/div&gt;&lt;div style=&quot;color: rgb(171, 178, 191);&quot;&gt;&lt;br&gt;&lt;/div&gt;&lt;div style=&quot;color: rgb(171, 178, 191);&quot;&gt;&amp;nbsp;constructor(){&lt;/div&gt;&lt;div style=&quot;color: rgb(171, 178, 191);&quot;&gt;&amp;nbsp; &amp;nbsp; &amp;nbsp; &amp;nbsp; &amp;nbsp;&lt;span style=&quot;color: #e5c07b;font-style: italic;&quot;&gt;super&lt;/span&gt;().&lt;span style=&quot;color: #61afef;&quot;&gt;loadImage&lt;/span&gt;(&lt;span style=&quot;color: #98c379;&quot;&gt;&#39;/src/img/5_background/layers/4_clouds/1.png&#39;&lt;/span&gt;);&lt;/div&gt;&lt;div style=&quot;color: rgb(171, 178, 191);&quot;&gt;&amp;nbsp; &amp;nbsp; &amp;nbsp; &amp;nbsp; &lt;span style=&quot;color: #e5c07b;&quot;&gt;this&lt;/span&gt;.&lt;span style=&quot;color: #e06c75;&quot;&gt;x&lt;/span&gt; &lt;span style=&quot;color: #56b6c2;&quot;&gt;=&lt;/span&gt; &lt;span style=&quot;color: #d19a66;&quot;&gt;0&lt;/span&gt; &lt;span style=&quot;color: #56b6c2;&quot;&gt;+&lt;/span&gt; (&lt;span style=&quot;color: #e5c07b;&quot;&gt;Math&lt;/span&gt;.&lt;span style=&quot;color: #61afef;&quot;&gt;random&lt;/span&gt;() &lt;span style=&quot;color: #56b6c2;&quot;&gt;*&lt;/span&gt; &lt;span style=&quot;color: #d19a66;&quot;&gt;500&lt;/span&gt;);&lt;/div&gt;&lt;div style=&quot;color: rgb(171, 178, 191);&quot;&gt;&amp;nbsp; &amp;nbsp; &amp;nbsp; &amp;nbsp; &lt;span style=&quot;color: #e5c07b;&quot;&gt;this&lt;/span&gt;.&lt;span style=&quot;color: #e06c75;&quot;&gt;speed&lt;/span&gt; &lt;span style=&quot;color: #56b6c2;&quot;&gt;=&lt;/span&gt; &lt;span style=&quot;color: #d19a66;&quot;&gt;0.01&lt;/span&gt; &lt;span style=&quot;color: #56b6c2;&quot;&gt;+&lt;/span&gt; (&lt;span style=&quot;color: #e5c07b;&quot;&gt;Math&lt;/span&gt;.&lt;span style=&quot;color: #61afef;&quot;&gt;random&lt;/span&gt;() &lt;span style=&quot;color: #56b6c2;&quot;&gt;*&lt;/span&gt; &lt;span style=&quot;color: #d19a66;&quot;&gt;.3&lt;/span&gt;);&lt;/div&gt;&lt;div style=&quot;color: rgb(171, 178, 191);&quot;&gt;&amp;nbsp; &amp;nbsp; &amp;nbsp; &amp;nbsp; &lt;span style=&quot;color: #e5c07b;&quot;&gt;this&lt;/span&gt;.&lt;span style=&quot;color: #61afef;&quot;&gt;loadImages&lt;/span&gt;(&lt;span style=&quot;color: #e5c07b;&quot;&gt;this&lt;/span&gt;.&lt;span style=&quot;color: #e06c75;&quot;&gt;IMAGES_WALKING&lt;/span&gt;);&lt;/div&gt;&lt;div style=&quot;color: rgb(171, 178, 191);&quot;&gt;&amp;nbsp; &amp;nbsp; &amp;nbsp; &amp;nbsp; &lt;span style=&quot;color: #e5c07b;&quot;&gt;this&lt;/span&gt;.&lt;span style=&quot;color: #61afef;&quot;&gt;animate&lt;/span&gt;();&lt;/div&gt;&lt;div style=&quot;color: rgb(171, 178, 191);&quot;&gt;&amp;nbsp; &amp;nbsp; }&lt;/div&gt;&lt;div style=&quot;color: rgb(171, 178, 191);&quot;&gt;&lt;br&gt;&lt;/div&gt;&lt;div style=&quot;&quot;&gt;&amp;nbsp;animate()&lt;br&gt;&lt;/div&gt;&lt;/div&gt;&lt;/div&gt;" style="verticalAlign=top;align=left;overflow=fill;fontSize=12;fontFamily=Helvetica;html=1;whiteSpace=wrap;" vertex="1" parent="1">
          <mxGeometry x="-4600" y="440" width="470" height="360" as="geometry" />
        </mxCell>
        <mxCell id="MXFwZuzTDgRPBYKRgnkD-28" value="" style="edgeStyle=entityRelationEdgeStyle;fontSize=12;html=1;endArrow=ERzeroToMany;endFill=1;rounded=0;startSize=8;endSize=8;curved=1;" edge="1" parent="1" target="MXFwZuzTDgRPBYKRgnkD-8">
          <mxGeometry width="100" height="100" relative="1" as="geometry">
            <mxPoint x="-4120" y="500" as="sourcePoint" />
            <mxPoint x="-4020" y="400" as="targetPoint" />
          </mxGeometry>
        </mxCell>
        <mxCell id="MXFwZuzTDgRPBYKRgnkD-29" value="&lt;p style=&quot;margin:0px;margin-top:4px;text-align:center;&quot;&gt;&lt;b&gt;Class = BackgroundObject&lt;/b&gt;&lt;/p&gt;&lt;hr size=&quot;1&quot;&gt;&lt;div style=&quot;height:2px;&quot;&gt;&lt;/div&gt;&lt;hr size=&quot;1&quot;&gt;&lt;div style=&quot;height: 2px;&quot;&gt;&amp;nbsp;height&lt;br&gt;&amp;nbsp;width&lt;br&gt;&amp;nbsp;&lt;br&gt;&lt;br&gt;&amp;nbsp;&lt;br&gt;&lt;br&gt;&lt;br&gt;&amp;nbsp; &amp;nbsp;&amp;nbsp;&lt;/div&gt;&lt;div style=&quot;height:2px;&quot;&gt;&lt;br&gt;&lt;br&gt;&lt;br&gt;&lt;span style=&quot;&quot;&gt;	&lt;/span&gt;&amp;nbsp;&lt;br&gt;&lt;/div&gt;&lt;div style=&quot;height: 2px;&quot;&gt;&lt;br&gt;&lt;br&gt;&lt;br&gt;&lt;div style=&quot;font-family: &amp;quot;JetBrainsMono Nerd Font&amp;quot;, Consolas, &amp;quot;Courier New&amp;quot;, monospace; line-height: 22px; color: rgb(171, 178, 191);&quot;&gt;&lt;div style=&quot;&quot;&gt;&amp;nbsp;constructor(&lt;span style=&quot;color: rgb(224, 108, 117); font-style: italic;&quot;&gt;imagePath&lt;/span&gt;, &lt;span style=&quot;color: rgb(224, 108, 117); font-style: italic;&quot;&gt;x&lt;/span&gt;){&lt;/div&gt;&lt;div style=&quot;&quot;&gt;&amp;nbsp; &amp;nbsp; &amp;nbsp; &amp;nbsp; &lt;span style=&quot;font-style: italic; color: rgb(229, 192, 123);&quot;&gt;super&lt;/span&gt;().&lt;span style=&quot;color: rgb(97, 175, 239);&quot;&gt;loadImage&lt;/span&gt;(&lt;span style=&quot;font-style: italic; color: rgb(224, 108, 117);&quot;&gt;imagePath&lt;/span&gt;);&lt;/div&gt;&lt;div style=&quot;&quot;&gt;&amp;nbsp; &amp;nbsp; &amp;nbsp; &amp;nbsp; &lt;span style=&quot;color: rgb(229, 192, 123);&quot;&gt;this&lt;/span&gt;.&lt;span style=&quot;color: rgb(224, 108, 117);&quot;&gt;x&lt;/span&gt; &lt;span style=&quot;color: rgb(86, 182, 194);&quot;&gt;=&lt;/span&gt; &lt;span style=&quot;font-style: italic; color: rgb(224, 108, 117);&quot;&gt;x&lt;/span&gt;;&lt;/div&gt;&lt;div style=&quot;&quot;&gt;&amp;nbsp; &amp;nbsp; &amp;nbsp; &amp;nbsp; &lt;span style=&quot;color: rgb(229, 192, 123);&quot;&gt;this&lt;/span&gt;.&lt;span style=&quot;color: rgb(224, 108, 117);&quot;&gt;y&lt;/span&gt; &lt;span style=&quot;color: rgb(86, 182, 194);&quot;&gt;=&lt;/span&gt; (&lt;span style=&quot;color: rgb(209, 154, 102);&quot;&gt;480&lt;/span&gt; &lt;span style=&quot;color: rgb(86, 182, 194);&quot;&gt;-&lt;/span&gt; &lt;span style=&quot;color: rgb(229, 192, 123);&quot;&gt;this&lt;/span&gt;.&lt;span style=&quot;color: rgb(224, 108, 117);&quot;&gt;height&lt;/span&gt;); &lt;/div&gt;&lt;div style=&quot;&quot;&gt;&amp;nbsp; &amp;nbsp; }&lt;/div&gt;&lt;/div&gt;&lt;/div&gt;" style="verticalAlign=top;align=left;overflow=fill;fontSize=12;fontFamily=Helvetica;html=1;whiteSpace=wrap;" vertex="1" parent="1">
          <mxGeometry x="-4520" y="180" width="400" height="220" as="geometry" />
        </mxCell>
        <mxCell id="MXFwZuzTDgRPBYKRgnkD-30" value="" style="edgeStyle=entityRelationEdgeStyle;fontSize=12;html=1;endArrow=ERzeroToMany;endFill=1;rounded=0;startSize=8;endSize=8;curved=1;exitX=1;exitY=0.5;exitDx=0;exitDy=0;" edge="1" parent="1" source="MXFwZuzTDgRPBYKRgnkD-29">
          <mxGeometry width="100" height="100" relative="1" as="geometry">
            <mxPoint x="-4170" y="190" as="sourcePoint" />
            <mxPoint x="-2660" y="560" as="targetPoint" />
          </mxGeometry>
        </mxCell>
        <mxCell id="MXFwZuzTDgRPBYKRgnkD-31" value="" style="edgeStyle=entityRelationEdgeStyle;fontSize=12;html=1;endArrow=ERzeroToMany;endFill=1;rounded=0;startSize=8;endSize=8;curved=1;exitX=0.5;exitY=0;exitDx=0;exitDy=0;entryX=1.013;entryY=0.47;entryDx=0;entryDy=0;entryPerimeter=0;" edge="1" parent="1" source="MXFwZuzTDgRPBYKRgnkD-13" target="MXFwZuzTDgRPBYKRgnkD-7">
          <mxGeometry width="100" height="100" relative="1" as="geometry">
            <mxPoint x="-2520" y="240" as="sourcePoint" />
            <mxPoint x="-2420" y="140" as="targetPoint" />
          </mxGeometry>
        </mxCell>
        <mxCell id="MXFwZuzTDgRPBYKRgnkD-32" value="" style="edgeStyle=entityRelationEdgeStyle;fontSize=12;html=1;endArrow=ERzeroToMany;endFill=1;rounded=0;startSize=8;endSize=8;curved=1;exitX=0.412;exitY=-0.003;exitDx=0;exitDy=0;exitPerimeter=0;" edge="1" parent="1" source="MXFwZuzTDgRPBYKRgnkD-9">
          <mxGeometry width="100" height="100" relative="1" as="geometry">
            <mxPoint x="-2650" y="860" as="sourcePoint" />
            <mxPoint x="-2550" y="760" as="targetPoint" />
          </mxGeometry>
        </mxCell>
        <mxCell id="MXFwZuzTDgRPBYKRgnkD-33" value="&lt;p style=&quot;margin:0px;margin-top:4px;text-align:center;&quot;&gt;&lt;br&gt;&lt;b&gt;class = Keyboard&lt;/b&gt;&lt;/p&gt;&lt;p style=&quot;margin:0px;margin-top:4px;text-align:center;&quot;&gt;&lt;b&gt;&lt;br&gt;&lt;/b&gt;&lt;/p&gt;&lt;p style=&quot;margin: 4px 0px 0px;&quot;&gt;&lt;font style=&quot;font-size: 12px;&quot;&gt;&lt;b style=&quot;&quot;&gt;&amp;nbsp;&lt;/b&gt;&amp;nbsp; &amp;nbsp; &lt;span style=&quot;font-family: &amp;quot;JetBrainsMono Nerd Font&amp;quot;, Consolas, &amp;quot;Courier New&amp;quot;, monospace; color: rgb(224, 108, 117);&quot;&gt;LEFT&lt;/span&gt;&lt;span style=&quot;color: rgb(171, 178, 191); font-family: &amp;quot;JetBrainsMono Nerd Font&amp;quot;, Consolas, &amp;quot;Courier New&amp;quot;, monospace;&quot;&gt; &lt;/span&gt;&lt;span style=&quot;font-family: &amp;quot;JetBrainsMono Nerd Font&amp;quot;, Consolas, &amp;quot;Courier New&amp;quot;, monospace; color: rgb(86, 182, 194);&quot;&gt;=&lt;/span&gt;&lt;span style=&quot;color: rgb(171, 178, 191); font-family: &amp;quot;JetBrainsMono Nerd Font&amp;quot;, Consolas, &amp;quot;Courier New&amp;quot;, monospace;&quot;&gt; &lt;/span&gt;&lt;span style=&quot;font-family: &amp;quot;JetBrainsMono Nerd Font&amp;quot;, Consolas, &amp;quot;Courier New&amp;quot;, monospace; color: rgb(209, 154, 102);&quot;&gt;false&lt;/span&gt;&lt;span style=&quot;color: rgb(171, 178, 191); font-family: &amp;quot;JetBrainsMono Nerd Font&amp;quot;, Consolas, &amp;quot;Courier New&amp;quot;, monospace;&quot;&gt;;&lt;/span&gt;&lt;/font&gt;&lt;/p&gt;&lt;div style=&quot;color: rgb(171, 178, 191); font-family: &amp;quot;JetBrainsMono Nerd Font&amp;quot;, Consolas, &amp;quot;Courier New&amp;quot;, monospace; line-height: 22px;&quot;&gt;&lt;div style=&quot;&quot;&gt;&lt;font style=&quot;font-size: 12px;&quot;&gt;&amp;nbsp; &amp;nbsp; &lt;span style=&quot;color: #e06c75;&quot;&gt;RIGHT&lt;/span&gt; &lt;span style=&quot;color: #56b6c2;&quot;&gt;=&lt;/span&gt; &lt;span style=&quot;color: #d19a66;&quot;&gt;false&lt;/span&gt;;&lt;/font&gt;&lt;/div&gt;&lt;div style=&quot;&quot;&gt;&lt;font style=&quot;font-size: 12px;&quot;&gt;&amp;nbsp; &amp;nbsp; &lt;span style=&quot;color: #e06c75;&quot;&gt;UP&lt;/span&gt; &lt;span style=&quot;color: #56b6c2;&quot;&gt;=&lt;/span&gt; &lt;span style=&quot;color: #d19a66;&quot;&gt;false&lt;/span&gt;;&lt;/font&gt;&lt;/div&gt;&lt;div style=&quot;&quot;&gt;&lt;font style=&quot;font-size: 12px;&quot;&gt;&amp;nbsp; &amp;nbsp; &lt;span style=&quot;color: #e06c75;&quot;&gt;DOWN&lt;/span&gt; &lt;span style=&quot;color: #56b6c2;&quot;&gt;=&lt;/span&gt; &lt;span style=&quot;color: #d19a66;&quot;&gt;false&lt;/span&gt;;&lt;/font&gt;&lt;/div&gt;&lt;div style=&quot;&quot;&gt;&lt;font style=&quot;font-size: 12px;&quot;&gt;&amp;nbsp; &amp;nbsp; &lt;span style=&quot;color: #e06c75;&quot;&gt;SPACE&lt;/span&gt; &lt;span style=&quot;color: #56b6c2;&quot;&gt;=&lt;/span&gt; &lt;span style=&quot;color: #d19a66;&quot;&gt;false&lt;/span&gt;;&lt;/font&gt;&lt;/div&gt;&lt;div style=&quot;&quot;&gt;&lt;font style=&quot;font-size: 12px;&quot;&gt;&amp;nbsp; &amp;nbsp; &lt;span style=&quot;color: rgb(224, 108, 117);&quot;&gt;d&lt;/span&gt; &lt;span style=&quot;color: rgb(86, 182, 194);&quot;&gt;=&lt;/span&gt; &lt;span style=&quot;color: rgb(209, 154, 102);&quot;&gt;false&lt;/span&gt;;&lt;/font&gt;&lt;/div&gt;&lt;/div&gt;" style="verticalAlign=top;align=left;overflow=fill;fontSize=12;fontFamily=Helvetica;html=1;whiteSpace=wrap;" vertex="1" parent="1">
          <mxGeometry x="-2010" y="200" width="200" height="200" as="geometry" />
        </mxCell>
        <mxCell id="MXFwZuzTDgRPBYKRgnkD-35" value="&lt;p style=&quot;margin:0px;margin-top:4px;text-align:center;&quot;&gt;&lt;br&gt;&lt;b&gt;class = world&lt;/b&gt;&lt;/p&gt;&lt;p style=&quot;margin:0px;margin-top:4px;text-align:center;&quot;&gt;&lt;b&gt;&lt;br&gt;&lt;/b&gt;&lt;/p&gt;&lt;p style=&quot;margin: 4px 0px 0px;&quot;&gt;&lt;font style=&quot;font-size: 12px;&quot;&gt;&lt;b style=&quot;&quot;&gt;&amp;nbsp;&lt;/b&gt;character&lt;/font&gt;&lt;/p&gt;&lt;p style=&quot;margin: 4px 0px 0px;&quot;&gt;&lt;span style=&quot;background-color: initial;&quot;&gt;&amp;nbsp;level&lt;/span&gt;&lt;/p&gt;&lt;p style=&quot;margin: 4px 0px 0px;&quot;&gt;&lt;font style=&quot;font-size: 12px;&quot;&gt;&lt;span style=&quot;&quot;&gt;&lt;/span&gt;&amp;nbsp;canvas&lt;br&gt;&lt;/font&gt;&lt;/p&gt;&lt;p style=&quot;margin: 4px 0px 0px;&quot;&gt;&lt;font style=&quot;font-size: 12px;&quot;&gt;&amp;nbsp;ctx&lt;/font&gt;&lt;/p&gt;&lt;p style=&quot;margin: 4px 0px 0px;&quot;&gt;&lt;font style=&quot;font-size: 12px;&quot;&gt;&lt;span style=&quot;&quot;&gt;&lt;/span&gt;&amp;nbsp;keyboard&lt;/font&gt;&lt;/p&gt;&lt;p style=&quot;margin: 4px 0px 0px;&quot;&gt;&lt;font style=&quot;font-size: 12px;&quot;&gt;&lt;span style=&quot;&quot;&gt;&lt;/span&gt;&amp;nbsp;camera_x&lt;/font&gt;&lt;/p&gt;&lt;p style=&quot;margin: 4px 0px 0px;&quot;&gt;&lt;font style=&quot;font-size: 12px;&quot;&gt;&lt;span style=&quot;&quot;&gt;&lt;/span&gt;&amp;nbsp;statusbar&lt;/font&gt;&lt;/p&gt;&lt;p style=&quot;margin: 4px 0px 0px;&quot;&gt;&lt;font style=&quot;font-size: 12px;&quot;&gt;&lt;span style=&quot;&quot;&gt;&lt;/span&gt;&amp;nbsp;throwableObjects&lt;/font&gt;&lt;/p&gt;&lt;p style=&quot;margin: 4px 0px 0px;&quot;&gt;&lt;font style=&quot;font-size: 12px;&quot;&gt;&lt;br&gt;&lt;/font&gt;&lt;/p&gt;&lt;p style=&quot;margin: 4px 0px 0px;&quot;&gt;&lt;font style=&quot;font-size: 12px;&quot;&gt;&lt;/font&gt;&lt;/p&gt;&lt;div style=&quot;font-family: &amp;quot;JetBrainsMono Nerd Font&amp;quot;, Consolas, &amp;quot;Courier New&amp;quot;, monospace; line-height: 22px;&quot;&gt;&lt;div style=&quot;color: rgb(171, 178, 191);&quot;&gt;&amp;nbsp; &amp;nbsp; constructor(&lt;span style=&quot;color: rgb(224, 108, 117); font-style: italic;&quot;&gt;canvas&lt;/span&gt;, &lt;span style=&quot;color: rgb(224, 108, 117); font-style: italic;&quot;&gt;keyboard&lt;/span&gt;) {&lt;/div&gt;&lt;div style=&quot;color: rgb(171, 178, 191);&quot;&gt;&amp;nbsp; &amp;nbsp; &amp;nbsp; &amp;nbsp; &lt;span style=&quot;color: #e5c07b;&quot;&gt;this&lt;/span&gt;.&lt;span style=&quot;color: #e06c75;&quot;&gt;ctx&lt;/span&gt; &lt;span style=&quot;color: #56b6c2;&quot;&gt;=&lt;/span&gt; &lt;span style=&quot;color: #e06c75;font-style: italic;&quot;&gt;canvas&lt;/span&gt;.&lt;span style=&quot;color: #61afef;&quot;&gt;getContext&lt;/span&gt;(&lt;span style=&quot;color: #98c379;&quot;&gt;&#39;2d&#39;&lt;/span&gt;);&lt;/div&gt;&lt;div style=&quot;color: rgb(171, 178, 191);&quot;&gt;&amp;nbsp; &amp;nbsp; &amp;nbsp; &amp;nbsp; &lt;span style=&quot;color: #e5c07b;&quot;&gt;this&lt;/span&gt;.&lt;span style=&quot;color: #e06c75;&quot;&gt;canvas&lt;/span&gt; &lt;span style=&quot;color: #56b6c2;&quot;&gt;=&lt;/span&gt; &lt;span style=&quot;color: #e06c75;font-style: italic;&quot;&gt;canvas&lt;/span&gt;;&lt;/div&gt;&lt;div style=&quot;color: rgb(171, 178, 191);&quot;&gt;&amp;nbsp; &amp;nbsp; &amp;nbsp; &amp;nbsp; &lt;span style=&quot;color: #e5c07b;&quot;&gt;this&lt;/span&gt;.&lt;span style=&quot;color: #e06c75;&quot;&gt;keyboard&lt;/span&gt; &lt;span style=&quot;color: #56b6c2;&quot;&gt;=&lt;/span&gt; &lt;span style=&quot;color: #e06c75;font-style: italic;&quot;&gt;keyboard&lt;/span&gt;;&lt;/div&gt;&lt;div style=&quot;color: rgb(171, 178, 191);&quot;&gt;&amp;nbsp; &amp;nbsp; &amp;nbsp; &amp;nbsp; &lt;span style=&quot;color: #e5c07b;&quot;&gt;this&lt;/span&gt;.&lt;span style=&quot;color: #61afef;&quot;&gt;draw&lt;/span&gt;();&lt;/div&gt;&lt;div style=&quot;color: rgb(171, 178, 191);&quot;&gt;&amp;nbsp; &amp;nbsp; &amp;nbsp; &amp;nbsp; &lt;/div&gt;&lt;div style=&quot;color: rgb(171, 178, 191);&quot;&gt;&amp;nbsp; &amp;nbsp; &amp;nbsp; &amp;nbsp; &lt;span style=&quot;color: #e5c07b;&quot;&gt;this&lt;/span&gt;.&lt;span style=&quot;color: #61afef;&quot;&gt;setWorld&lt;/span&gt;();&lt;/div&gt;&lt;div style=&quot;color: rgb(171, 178, 191);&quot;&gt;&amp;nbsp; &amp;nbsp; &amp;nbsp; &amp;nbsp; &lt;span style=&quot;color: #7f848e;font-style: italic;&quot;&gt;// initLevel();&lt;/span&gt;&lt;/div&gt;&lt;div style=&quot;color: rgb(171, 178, 191);&quot;&gt;&amp;nbsp; &amp;nbsp; &amp;nbsp; &amp;nbsp; &lt;span style=&quot;color: #e5c07b;&quot;&gt;this&lt;/span&gt;.&lt;span style=&quot;color: #61afef;&quot;&gt;run&lt;/span&gt;();&lt;/div&gt;&lt;br&gt;&lt;div style=&quot;color: rgb(171, 178, 191);&quot;&gt;&amp;nbsp; &amp;nbsp; &amp;nbsp; &amp;nbsp; }&lt;/div&gt;&lt;div style=&quot;&quot;&gt;&amp;nbsp;setWorld()&lt;/div&gt;&lt;div style=&quot;&quot;&gt;&amp;nbsp;run()&lt;/div&gt;&lt;div style=&quot;&quot;&gt;&amp;nbsp;checkThrowObjects()&lt;/div&gt;&lt;div style=&quot;&quot;&gt;&amp;nbsp;checkCollision()&lt;/div&gt;&lt;div style=&quot;&quot;&gt;&amp;nbsp;draw()&lt;/div&gt;&lt;div style=&quot;&quot;&gt;&amp;nbsp;addObjectsToMap(objects)&lt;/div&gt;&lt;div style=&quot;&quot;&gt;&amp;nbsp;addToMap(mo)&lt;/div&gt;&lt;div style=&quot;&quot;&gt;&amp;nbsp;flipImage(mo)&lt;/div&gt;&lt;div style=&quot;&quot;&gt;&amp;nbsp;flipImageBack(mo)&lt;/div&gt;&lt;/div&gt;" style="verticalAlign=top;align=left;overflow=fill;fontSize=12;fontFamily=Helvetica;html=1;whiteSpace=wrap;" vertex="1" parent="1">
          <mxGeometry x="-2010" y="480" width="320" height="681" as="geometry" />
        </mxCell>
        <mxCell id="MXFwZuzTDgRPBYKRgnkD-37" value="&lt;p style=&quot;margin:0px;margin-top:4px;text-align:center;&quot;&gt;&lt;br&gt;&lt;b&gt;(levels)&amp;nbsp; level1.js&lt;/b&gt;&lt;/p&gt;&lt;p style=&quot;margin:0px;margin-top:4px;text-align:center;&quot;&gt;&lt;b&gt;&lt;br&gt;&lt;/b&gt;&lt;/p&gt;&lt;p style=&quot;margin: 4px 0px 0px;&quot;&gt;&lt;font style=&quot;&quot;&gt;&lt;b style=&quot;font-size: 12px;&quot;&gt;&amp;nbsp;&lt;/b&gt;&lt;font style=&quot;font-size: 13px;&quot;&gt;let&lt;/font&gt;&lt;span style=&quot;font-size: 12px; font-family: &amp;quot;JetBrainsMono Nerd Font&amp;quot;, Consolas, &amp;quot;Courier New&amp;quot;, monospace;&quot;&gt; &lt;/span&gt;&lt;span style=&quot;font-size: 12px; font-family: &amp;quot;JetBrainsMono Nerd Font&amp;quot;, Consolas, &amp;quot;Courier New&amp;quot;, monospace;&quot;&gt;level1&lt;/span&gt;&lt;span style=&quot;font-size: 12px; font-family: &amp;quot;JetBrainsMono Nerd Font&amp;quot;, Consolas, &amp;quot;Courier New&amp;quot;, monospace;&quot;&gt; &lt;/span&gt;&lt;span style=&quot;font-size: 12px; font-family: &amp;quot;JetBrainsMono Nerd Font&amp;quot;, Consolas, &amp;quot;Courier New&amp;quot;, monospace;&quot;&gt;=&lt;/span&gt;&lt;span style=&quot;font-size: 12px; font-family: &amp;quot;JetBrainsMono Nerd Font&amp;quot;, Consolas, &amp;quot;Courier New&amp;quot;, monospace;&quot;&gt; &lt;/span&gt;&lt;span style=&quot;font-size: 12px; font-family: &amp;quot;JetBrainsMono Nerd Font&amp;quot;, Consolas, &amp;quot;Courier New&amp;quot;, monospace;&quot;&gt;new&lt;/span&gt;&lt;span style=&quot;font-size: 12px; font-family: &amp;quot;JetBrainsMono Nerd Font&amp;quot;, Consolas, &amp;quot;Courier New&amp;quot;, monospace;&quot;&gt; &lt;/span&gt;&lt;span style=&quot;font-size: 12px; font-family: &amp;quot;JetBrainsMono Nerd Font&amp;quot;, Consolas, &amp;quot;Courier New&amp;quot;, monospace;&quot;&gt;Level&lt;/span&gt;&lt;span style=&quot;font-size: 12px; font-family: &amp;quot;JetBrainsMono Nerd Font&amp;quot;, Consolas, &amp;quot;Courier New&amp;quot;, monospace;&quot;&gt;(&lt;/span&gt;&lt;/font&gt;&lt;/p&gt;&lt;p style=&quot;margin: 4px 0px 0px;&quot;&gt;&lt;span style=&quot;font-family: &amp;quot;JetBrainsMono Nerd Font&amp;quot;, Consolas, &amp;quot;Courier New&amp;quot;, monospace;&quot;&gt;&lt;font style=&quot;font-size: 12px;&quot;&gt;[]&lt;/font&gt;&lt;/span&gt;&lt;/p&gt;&lt;p style=&quot;margin: 4px 0px 0px;&quot;&gt;&lt;span style=&quot;font-family: &amp;quot;JetBrainsMono Nerd Font&amp;quot;, Consolas, &amp;quot;Courier New&amp;quot;, monospace;&quot;&gt;&lt;font style=&quot;font-size: 12px;&quot;&gt;);&lt;/font&gt;&lt;/span&gt;&lt;/p&gt;" style="verticalAlign=top;align=left;overflow=fill;fontSize=12;fontFamily=Helvetica;html=1;whiteSpace=wrap;" vertex="1" parent="1">
          <mxGeometry x="-1770" y="115" width="410" height="130" as="geometry" />
        </mxCell>
        <mxCell id="MXFwZuzTDgRPBYKRgnkD-38" value="&lt;p style=&quot;margin:0px;margin-top:4px;text-align:center;&quot;&gt;&lt;br&gt;&lt;b&gt;class = Level&lt;/b&gt;&lt;/p&gt;&lt;p style=&quot;margin:0px;margin-top:4px;text-align:center;&quot;&gt;&lt;b&gt;&lt;br&gt;&lt;/b&gt;&lt;/p&gt;&lt;div style=&quot;color: rgb(171, 178, 191); font-family: &amp;quot;JetBrainsMono Nerd Font&amp;quot;, Consolas, &amp;quot;Courier New&amp;quot;, monospace; line-height: 22px;&quot;&gt;&lt;div style=&quot;&quot;&gt;&amp;nbsp; &amp;nbsp;enemies;&lt;/div&gt;&lt;div style=&quot;&quot;&gt;&amp;nbsp; &amp;nbsp; &lt;span style=&quot;color: #e06c75;&quot;&gt;clouds&lt;/span&gt;;&lt;/div&gt;&lt;div style=&quot;&quot;&gt;&amp;nbsp; &amp;nbsp; &lt;span style=&quot;color: #e06c75;&quot;&gt;backgroundObjects&lt;/span&gt;;&lt;/div&gt;&lt;div style=&quot;&quot;&gt;&amp;nbsp; &amp;nbsp; &lt;span style=&quot;color: #e06c75;&quot;&gt;level_end_x&lt;/span&gt; &lt;span style=&quot;color: #56b6c2;&quot;&gt;=&lt;/span&gt; &lt;span style=&quot;color: #d19a66;&quot;&gt;2256&lt;/span&gt;;&lt;/div&gt;&lt;br&gt;&lt;div style=&quot;&quot;&gt;&amp;nbsp; &amp;nbsp; &lt;span style=&quot;color: #c678dd;&quot;&gt;constructor&lt;/span&gt;(&lt;span style=&quot;color: #e06c75;font-style: italic;&quot;&gt;enemies&lt;/span&gt;, &lt;span style=&quot;color: #e06c75;font-style: italic;&quot;&gt;clouds&lt;/span&gt;, &lt;span style=&quot;color: #e06c75;font-style: italic;&quot;&gt;backgroundObjects&lt;/span&gt;){&lt;/div&gt;&lt;div style=&quot;&quot;&gt;&amp;nbsp; &amp;nbsp; &amp;nbsp; &amp;nbsp; &lt;span style=&quot;color: #e5c07b;&quot;&gt;this&lt;/span&gt;.&lt;span style=&quot;color: #e06c75;&quot;&gt;enemies&lt;/span&gt; &lt;span style=&quot;color: #56b6c2;&quot;&gt;=&lt;/span&gt; &lt;span style=&quot;color: #e06c75;font-style: italic;&quot;&gt;enemies&lt;/span&gt;;&lt;/div&gt;&lt;div style=&quot;&quot;&gt;&amp;nbsp; &amp;nbsp; &amp;nbsp; &amp;nbsp; &lt;span style=&quot;color: #e5c07b;&quot;&gt;this&lt;/span&gt;.&lt;span style=&quot;color: #e06c75;&quot;&gt;clouds&lt;/span&gt; &lt;span style=&quot;color: #56b6c2;&quot;&gt;=&lt;/span&gt; &lt;span style=&quot;color: #e06c75;font-style: italic;&quot;&gt;clouds&lt;/span&gt;;&lt;/div&gt;&lt;div style=&quot;&quot;&gt;&amp;nbsp; &amp;nbsp; &amp;nbsp; &amp;nbsp; &lt;span style=&quot;color: #e5c07b;&quot;&gt;this&lt;/span&gt;.&lt;span style=&quot;color: #e06c75;&quot;&gt;backgroundObjects&lt;/span&gt; &lt;span style=&quot;color: #56b6c2;&quot;&gt;=&lt;/span&gt; &lt;span style=&quot;color: #e06c75;font-style: italic;&quot;&gt;backgroundObjects&lt;/span&gt;;&lt;/div&gt;&lt;div style=&quot;&quot;&gt;&amp;nbsp; &amp;nbsp; }&lt;/div&gt;&lt;/div&gt;" style="verticalAlign=top;align=left;overflow=fill;fontSize=12;fontFamily=Helvetica;html=1;whiteSpace=wrap;" vertex="1" parent="1">
          <mxGeometry x="-1250" y="120" width="410" height="290" as="geometry" />
        </mxCell>
        <mxCell id="MXFwZuzTDgRPBYKRgnkD-39" value="&lt;p style=&quot;margin: 4px 0px 0px; text-align: center;&quot;&gt;&lt;font style=&quot;font-size: 12px;&quot;&gt;&lt;br&gt;&lt;b style=&quot;&quot;&gt;(js)&amp;nbsp; game.js&lt;/b&gt;&lt;/font&gt;&lt;/p&gt;&lt;p style=&quot;margin: 4px 0px 0px; text-align: center;&quot;&gt;&lt;b&gt;&lt;font style=&quot;font-size: 12px;&quot;&gt;&lt;br&gt;&lt;/font&gt;&lt;/b&gt;&lt;/p&gt;&lt;p style=&quot;margin: 4px 0px 0px;&quot;&gt;&lt;font style=&quot;font-size: 12px;&quot;&gt;&lt;font style=&quot;font-size: 12px;&quot;&gt;&lt;b style=&quot;&quot;&gt;&amp;nbsp;&lt;/b&gt;&lt;/font&gt;let&lt;span style=&quot;color: rgb(171, 178, 191); font-family: &amp;quot;JetBrainsMono Nerd Font&amp;quot;, Consolas, &amp;quot;Courier New&amp;quot;, monospace;&quot;&gt; &lt;/span&gt;&lt;span style=&quot;font-family: &amp;quot;JetBrainsMono Nerd Font&amp;quot;, Consolas, &amp;quot;Courier New&amp;quot;, monospace; color: rgb(224, 108, 117);&quot;&gt;canvas&lt;/span&gt;&lt;span style=&quot;color: rgb(171, 178, 191); font-family: &amp;quot;JetBrainsMono Nerd Font&amp;quot;, Consolas, &amp;quot;Courier New&amp;quot;, monospace;&quot;&gt;;&lt;/span&gt;&lt;/font&gt;&lt;/p&gt;&lt;div style=&quot;color: rgb(171, 178, 191); font-family: &amp;quot;JetBrainsMono Nerd Font&amp;quot;, Consolas, &amp;quot;Courier New&amp;quot;, monospace; line-height: 22px;&quot;&gt;&lt;div style=&quot;&quot;&gt;&lt;font style=&quot;font-size: 12px;&quot;&gt;&lt;span style=&quot;color: #c678dd;&quot;&gt;let&lt;/span&gt; &lt;span style=&quot;color: #e06c75;&quot;&gt;world&lt;/span&gt;;&lt;/font&gt;&lt;/div&gt;&lt;div style=&quot;&quot;&gt;&lt;font style=&quot;font-size: 12px;&quot;&gt;&lt;span style=&quot;color: #c678dd;&quot;&gt;let&lt;/span&gt; &lt;span style=&quot;color: #e06c75;&quot;&gt;keyboard&lt;/span&gt; &lt;span style=&quot;color: #56b6c2;&quot;&gt;=&lt;/span&gt; &lt;span style=&quot;color: #c678dd;&quot;&gt;new&lt;/span&gt; &lt;span style=&quot;color: #61afef;&quot;&gt;Keyboard&lt;/span&gt;();&lt;/font&gt;&lt;/div&gt;&lt;font style=&quot;font-size: 12px;&quot;&gt;&lt;br&gt;&lt;/font&gt;&lt;div style=&quot;&quot;&gt;&lt;font style=&quot;font-size: 12px;&quot;&gt;&lt;span style=&quot;color: #c678dd;&quot;&gt;function&lt;/span&gt; &lt;span style=&quot;color: #61afef;&quot;&gt;init&lt;/span&gt;() {&lt;/font&gt;&lt;/div&gt;&lt;div style=&quot;&quot;&gt;&lt;font style=&quot;font-size: 12px;&quot;&gt;&amp;nbsp; &amp;nbsp;&lt;/font&gt;&lt;span style=&quot;background-color: initial;&quot;&gt;&amp;nbsp;&lt;/span&gt;&lt;span style=&quot;background-color: initial; color: rgb(224, 108, 117);&quot;&gt;canvas&lt;/span&gt;&lt;span style=&quot;background-color: initial;&quot;&gt; &lt;/span&gt;&lt;span style=&quot;background-color: initial; color: rgb(86, 182, 194);&quot;&gt;=&lt;/span&gt;&lt;span style=&quot;background-color: initial;&quot;&gt; &lt;/span&gt;&lt;span style=&quot;background-color: initial; color: rgb(229, 192, 123);&quot;&gt;document&lt;/span&gt;&lt;span style=&quot;background-color: initial;&quot;&gt;.&lt;/span&gt;&lt;span style=&quot;background-color: initial; color: rgb(97, 175, 239);&quot;&gt;getElementById&lt;/span&gt;&lt;span style=&quot;background-color: initial;&quot;&gt;(&lt;/span&gt;&lt;span style=&quot;background-color: initial; color: rgb(152, 195, 121);&quot;&gt;&#39;playscreenId&#39;&lt;/span&gt;&lt;span style=&quot;background-color: initial;&quot;&gt;);&lt;/span&gt;&lt;/div&gt;&lt;div style=&quot;&quot;&gt;&lt;font style=&quot;font-size: 12px;&quot;&gt;&amp;nbsp; &amp;nbsp;&amp;nbsp;&lt;span style=&quot;color: #e06c75;&quot;&gt;world&lt;/span&gt; &lt;span style=&quot;color: #56b6c2;&quot;&gt;=&lt;/span&gt; &lt;span style=&quot;color: #c678dd;&quot;&gt;new&lt;/span&gt; &lt;span style=&quot;color: #61afef;&quot;&gt;World&lt;/span&gt;(&lt;span style=&quot;color: #e06c75;&quot;&gt;canvas&lt;/span&gt;, &lt;span style=&quot;color: #e06c75;&quot;&gt;keyboard&lt;/span&gt;);&lt;/font&gt;&lt;/div&gt;&lt;div style=&quot;&quot;&gt;&lt;font style=&quot;font-size: 12px;&quot;&gt;};&lt;/font&gt;&lt;/div&gt;&lt;div style=&quot;&quot;&gt;&lt;font style=&quot;font-size: 12px;&quot;&gt;&lt;br&gt;&lt;/font&gt;&lt;/div&gt;&lt;div style=&quot;&quot;&gt;&lt;font style=&quot;font-size: 12px;&quot;&gt;&lt;div style=&quot;line-height: 22px;&quot;&gt;window.&lt;span style=&quot;color: rgb(97, 175, 239);&quot;&gt;addEventListener&lt;/span&gt;(&lt;span style=&quot;color: rgb(152, 195, 121);&quot;&gt;&quot;keydown&quot;&lt;/span&gt;, (&lt;span style=&quot;color: rgb(224, 108, 117); font-style: italic;&quot;&gt;event&lt;/span&gt;) &lt;span style=&quot;color: rgb(198, 120, 221);&quot;&gt;=&amp;gt;&lt;/span&gt; {}&lt;/div&gt;&lt;div style=&quot;line-height: 22px;&quot;&gt;&lt;br&gt;&lt;/div&gt;&lt;div style=&quot;line-height: 22px;&quot;&gt;&lt;div style=&quot;line-height: 22px;&quot;&gt;window.&lt;span style=&quot;color: rgb(97, 175, 239);&quot;&gt;addEventListener&lt;/span&gt;(&lt;span style=&quot;color: rgb(152, 195, 121);&quot;&gt;&quot;keyup&quot;&lt;/span&gt;, (&lt;span style=&quot;color: rgb(224, 108, 117); font-style: italic;&quot;&gt;event&lt;/span&gt;) &lt;span style=&quot;color: rgb(198, 120, 221);&quot;&gt;=&amp;gt;&lt;/span&gt; {}&lt;/div&gt;&lt;div style=&quot;font-size: 16px; line-height: 22px;&quot;&gt;&lt;br&gt;&lt;/div&gt;&lt;/div&gt;&lt;/font&gt;&lt;/div&gt;&lt;/div&gt;" style="verticalAlign=top;align=left;overflow=fill;fontSize=12;fontFamily=Helvetica;html=1;whiteSpace=wrap;" vertex="1" parent="1">
          <mxGeometry x="-1250" y="480" width="410" height="340" as="geometry" />
        </mxCell>
      </root>
    </mxGraphModel>
  </diagram>
</mxfile>
